<?xml version="1.0" encoding="UTF-8"?>
<svg id="Layer_2" data-name="Layer 2" xmlns="http://www.w3.org/2000/svg" viewBox="0 0 398.38 137.1">
  <defs>
    <style>
      .cls-1 {
        fill: #fff;
      }
    </style>
  </defs>
  <g id="_002" data-name="002">
    <g>
      <polygon class="cls-1" points="273.34 96.77 299.13 96.77 345.92 .87 321.07 1 273.34 96.77"/>
      <polygon class="cls-1" points="324.89 .87 350.69 .87 397.48 96.77 372.63 96.64 324.89 .87"/>
      <path class="cls-1" d="M0,96.8V.14h17.49l47.43-.14c19.17,0,34.04,4.1,44.62,12.3,10.57,8.2,15.86,20.23,15.86,36.1s-5.29,27.9-15.86,36.1c-10.58,8.2-25.45,12.3-44.62,12.3H0ZM63.29,17.58H23.72v61.65h39.58c12.45,0,21.89-2.48,28.31-7.44,6.42-4.96,9.64-12.75,9.64-23.39s-3.21-18.54-9.64-23.46c-6.42-4.91-15.86-7.37-28.31-7.37Z"/>
      <path class="cls-1" d="M140.23,96.8V.14h24.01l75.01,69.49V.14h23.72v96.66h-24.01L163.95,27.17v69.63h-23.72Z"/>
      <path class="cls-1" d="M213.49,20.31l-18.39-17.04c-1.26-1.16-.43-3.26,1.28-3.26l18.47.05c.99,0,1.79.81,1.79,1.8v17.07c0,1.64-1.95,2.49-3.16,1.38Z"/>
      <g>
        <path class="cls-1" d="M.57,136.74v-17.16h12.74c1.68,0,3.05.1,4.13.3,1.08.2,1.92.59,2.53,1.17.61.58,1.03,1.42,1.27,2.52.24,1.1.36,2.56.36,4.37v.45c0,1.75-.12,3.17-.36,4.27s-.67,1.94-1.27,2.54c-.61.59-1.45,1-2.53,1.22s-2.46.33-4.13.33H.57ZM2.72,134.89h10.59c1.33,0,2.41-.06,3.22-.19.81-.13,1.43-.4,1.85-.83s.71-1.07.86-1.94c.15-.87.22-2.05.22-3.54v-.45c0-1.24-.04-2.26-.13-3.06-.09-.8-.26-1.44-.5-1.9-.24-.47-.59-.81-1.05-1.03s-1.05-.36-1.78-.42c-.73-.06-1.63-.09-2.69-.09H2.72v13.45Z"/>
        <path class="cls-1" d="M23.76,136.74l10.01-17.16h2.86l10.01,17.16h-2.5l-2.15-3.93h-13.59l-2.15,3.93h-2.5ZM29.48,131.02h11.44l-5.72-10.01-5.72,10.01Z"/>
        <path class="cls-1" d="M54.57,136.74l10.01-17.16h2.86l10.01,17.16h-2.5l-2.15-3.93h-13.59l-2.15,3.93h-2.5ZM60.29,131.02h11.44l-5.72-10.01-5.72,10.01Z"/>
        <path class="cls-1" d="M80.31,136.74v-17.16h2.15v15.37h13.59v1.79h-15.73Z"/>
        <path class="cls-1" d="M102.38,136.74v-15.37h-8.58v-1.79h19.31v1.79h-8.58v15.37h-2.15Z"/>
        <path class="cls-1" d="M111.23,136.74l10.01-17.16h2.86l10.01,17.16h-2.5l-2.15-3.93h-13.59l-2.15,3.93h-2.5ZM116.95,131.02h11.44l-5.72-10.01-5.72,10.01Z"/>
        <path class="cls-1" d="M143.51,136.74v-17.16h11.49c1.68,0,3.03.08,4.05.25,1.02.16,1.8.44,2.33.82.53.38.89.9,1.07,1.55.19.65.28,1.46.28,2.43v.45c0,.92-.09,1.71-.28,2.35-.19.64-.56,1.16-1.1,1.56-.54.4-1.33.68-2.36.87s-2.38.27-4.06.27h-9.27v6.61h-2.15ZM160.59,124.63c0-.71-.07-1.27-.2-1.7-.13-.42-.4-.74-.8-.96-.4-.22-1-.36-1.8-.43-.8-.07-1.86-.11-3.2-.11h-8.93v6.84h8.93c1.33,0,2.4-.04,3.2-.13.8-.09,1.4-.24,1.8-.47.4-.23.67-.55.8-.97.13-.42.2-.96.2-1.63v-.45Z"/>
        <path class="cls-1" d="M165.71,136.74v-17.16h16.85v1.79h-14.7v5.72h14.09v1.79h-14.09v6.08h15.02v1.79h-17.16Z"/>
        <path class="cls-1" d="M185.78,119.58h11.49c1.68,0,3.03.07,4.05.22,1.02.15,1.8.41,2.33.77.53.37.89.86,1.07,1.5.19.63.28,1.43.28,2.4v.45c0,.89-.11,1.66-.32,2.31-.21.64-.62,1.17-1.22,1.56s-1.5.68-2.68.84l3.73,7.11h-2.15l-3.65-6.95c-.15,0-.3.01-.46.01h-10.32v6.94h-2.15v-17.16ZM187.92,127.95h9.49c1.27,0,2.28-.04,3.01-.13.73-.09,1.27-.24,1.62-.45.35-.22.57-.52.67-.92.1-.39.14-.9.14-1.53v-.45c0-.71-.07-1.27-.2-1.68-.13-.41-.4-.71-.8-.9s-1-.32-1.8-.37c-.8-.06-1.86-.08-3.19-.08h-8.93v6.51Z"/>
        <path class="cls-1" d="M209.05,136.74v-17.16h16.18v1.79h-14.03v5.72h13.4v1.79h-13.4v7.87h-2.14Z"/>
        <path class="cls-1" d="M235.94,137.1c-1.68,0-3.05-.11-4.13-.34s-1.92-.65-2.53-1.26c-.61-.61-1.03-1.49-1.27-2.64s-.36-2.64-.36-4.48v-.45c0-1.52.08-2.79.22-3.83s.41-1.87.77-2.52c.36-.65.86-1.14,1.49-1.49.63-.34,1.42-.58,2.38-.7s2.1-.18,3.44-.18h4.5c1.34,0,2.49.06,3.44.18s1.74.36,2.37.7c.63.34,1.13.84,1.49,1.49s.62,1.49.77,2.52c.15,1.03.22,2.31.22,3.83v.45c0,1.84-.12,3.33-.36,4.48s-.67,2.03-1.27,2.64c-.61.61-1.45,1.03-2.53,1.26s-2.46.34-4.13.34h-4.5ZM235.94,135.24h4.5c1.06,0,1.96-.04,2.69-.11.73-.07,1.32-.23,1.78-.48.46-.25.81-.62,1.05-1.12.24-.5.41-1.17.5-2,.09-.83.13-1.88.13-3.15v-.45c0-1.31-.04-2.39-.13-3.24s-.26-1.52-.5-2.01c-.24-.49-.59-.85-1.05-1.08-.46-.23-1.05-.37-1.78-.44-.73-.06-1.63-.09-2.69-.09h-4.5c-1.07,0-1.96.03-2.69.09-.73.06-1.32.21-1.78.44-.46.23-.81.59-1.05,1.08-.24.49-.41,1.16-.5,2.01-.09.85-.13,1.93-.13,3.24v.45c0,1.27.04,2.32.13,3.15.09.83.26,1.5.5,2,.24.5.59.87,1.05,1.12.46.25,1.05.41,1.78.48.73.07,1.63.11,2.69.11Z"/>
        <path class="cls-1" d="M252.37,119.58h11.49c1.68,0,3.03.07,4.05.22,1.03.15,1.8.41,2.33.77.53.37.89.86,1.07,1.5.19.63.28,1.43.28,2.4v.45c0,.89-.11,1.66-.32,2.31-.21.64-.62,1.17-1.22,1.56s-1.5.68-2.68.84l3.73,7.11h-2.15l-3.65-6.95c-.15,0-.3.01-.46.01h-10.32v6.94h-2.15v-17.16ZM254.51,127.95h9.48c1.27,0,2.28-.04,3.01-.13.73-.09,1.27-.24,1.62-.45.35-.22.57-.52.67-.92.1-.39.14-.9.14-1.53v-.45c0-.71-.07-1.27-.2-1.68-.13-.41-.4-.71-.8-.9s-1-.32-1.8-.37c-.8-.06-1.86-.08-3.2-.08h-8.93v6.51Z"/>
        <path class="cls-1" d="M275.68,136.74v-17.16h3.2l10.38,14,10.22-14h3.2v17.16h-2.15v-15.22l-10.24,14.09h-1.94l-10.51-14.09v15.22h-2.15Z"/>
        <path class="cls-1" d="M305.58,136.74l10.01-17.16h2.86l10.01,17.16h-2.5l-2.14-3.93h-13.59l-2.14,3.93h-2.5ZM311.3,131.02h11.44l-5.72-10.01-5.72,10.01Z"/>
        <path class="cls-1" d="M331.32,136.74v-17.16h2.23l17.24,14.51h.02v-14.51h2.15v17.16h-2.23l-17.24-14.64h-.02v14.64h-2.14Z"/>
        <path class="cls-1" d="M356.54,128.38v-.45c0-1.52.08-2.79.22-3.83s.41-1.87.77-2.52c.36-.65.86-1.14,1.49-1.49.63-.34,1.42-.58,2.38-.7s2.1-.18,3.44-.18h4.5c1.53,0,2.83.07,3.88.22,1.05.15,1.9.43,2.55.86.64.43,1.11,1.06,1.4,1.89.29.83.44,1.93.44,3.3h-2.14c0-1.08-.1-1.92-.29-2.52s-.52-1.03-.98-1.3c-.46-.27-1.08-.43-1.87-.5-.79-.06-1.78-.09-2.98-.09h-4.5c-1.07,0-1.96.03-2.69.09-.73.06-1.32.21-1.78.44-.46.23-.81.59-1.05,1.08-.24.49-.41,1.16-.5,2.01-.09.85-.13,1.93-.13,3.24v.45c0,1.27.04,2.32.13,3.15.09.83.26,1.5.5,2s.59.87,1.05,1.12c.46.25,1.05.41,1.78.48.73.07,1.63.11,2.69.11h4.5c1.2,0,2.19-.03,2.98-.08s1.41-.21,1.87-.46c.46-.25.79-.68.98-1.27.19-.59.29-1.42.29-2.5h2.14c0,1.37-.14,2.47-.44,3.28s-.76,1.44-1.4,1.85c-.64.41-1.49.69-2.55.82-1.05.13-2.35.2-3.88.2h-4.5c-1.68,0-3.05-.11-4.13-.34s-1.92-.65-2.53-1.26c-.61-.61-1.03-1.49-1.27-2.64s-.36-2.64-.36-4.48Z"/>
        <path class="cls-1" d="M381.22,136.74v-17.16h16.85v1.79h-14.7v5.72h14.09v1.79h-14.09v6.08h15.02v1.79h-17.16Z"/>
      </g>
    </g>
  </g>
</svg>