<?xml version="1.0" encoding="UTF-8"?>
<svg id="Layer_2" data-name="Layer 2" xmlns="http://www.w3.org/2000/svg" viewBox="0 0 397.98 141.25">
  <defs>
    <style>
      .cls-1 {
        fill: #fff;
      }

      .cls-2 {
        fill: #6ceeff;
      }

      .cls-3 {
        fill: #e32c64;
      }
    </style>
  </defs>
  <g id="_003" data-name="003">
    <g>
      <polygon class="cls-2" points="273.84 96.77 299.63 96.77 346.43 .87 321.57 1 273.84 96.77"/>
      <polygon class="cls-2" points="325.4 .87 351.19 .87 397.98 96.77 373.13 96.64 325.4 .87"/>
      <path class="cls-2" d="M.5,96.8V.14h17.49l47.43-.14c19.17,0,34.04,4.1,44.62,12.3,10.57,8.2,15.86,20.23,15.86,36.1s-5.29,27.9-15.86,36.1c-10.58,8.2-25.45,12.3-44.62,12.3H.5ZM63.8,17.58H24.22v61.65h39.58c12.45,0,21.89-2.48,28.31-7.44,6.42-4.96,9.64-12.75,9.64-23.39s-3.21-18.54-9.64-23.46c-6.42-4.91-15.86-7.37-28.31-7.37Z"/>
      <path class="cls-2" d="M140.73,96.8V.14h24.01l75.01,69.49V.14h23.72v96.66h-24.01L164.45,27.17v69.62h-23.72Z"/>
      <path class="cls-3" d="M214.13,20.44l-18.68-17.3c-1.2-1.11-.41-3.13,1.23-3.12l18.68.06c.99,0,1.79.81,1.79,1.8v17.25c0,1.57-1.87,2.39-3.02,1.32Z"/>
      <g>
        <path class="cls-1" d="M0,140.9v-17.13h12.71c1.67,0,3.05.1,4.13.3,1.08.2,1.92.59,2.53,1.17.61.58,1.03,1.41,1.27,2.51.24,1.1.36,2.55.36,4.36v.45c0,1.75-.12,3.17-.36,4.26s-.67,1.94-1.27,2.53c-.61.59-1.45,1-2.53,1.22s-2.45.33-4.13.33H0ZM2.14,139.05h10.57c1.33,0,2.4-.06,3.21-.19.81-.13,1.43-.4,1.85-.82s.71-1.07.86-1.94c.15-.87.22-2.05.22-3.53v-.45c0-1.23-.04-2.25-.13-3.06-.09-.8-.25-1.44-.5-1.9-.24-.46-.59-.81-1.05-1.03s-1.05-.36-1.78-.42c-.73-.06-1.62-.09-2.69-.09H2.14v13.42Z"/>
        <path class="cls-1" d="M23.14,140.9l9.99-17.13h2.85l9.99,17.13h-2.5l-2.14-3.92h-13.56l-2.14,3.92h-2.5ZM28.84,135.19h11.42l-5.71-9.99-5.71,9.99Z"/>
        <path class="cls-1" d="M53.89,140.9l9.99-17.13h2.85l9.99,17.13h-2.5l-2.14-3.92h-13.56l-2.14,3.92h-2.5ZM59.6,135.19h11.42l-5.71-9.99-5.71,9.99Z"/>
        <path class="cls-1" d="M79.58,140.9v-17.13h2.14v15.34h13.56v1.78h-15.7Z"/>
        <path class="cls-1" d="M101.6,140.9v-15.34h-8.56v-1.78h19.27v1.78h-8.56v15.34h-2.14Z"/>
        <path class="cls-1" d="M110.43,140.9l9.99-17.13h2.85l9.99,17.13h-2.5l-2.14-3.92h-13.56l-2.14,3.92h-2.5ZM116.14,135.19h11.42l-5.71-9.99-5.71,9.99Z"/>
        <path class="cls-1" d="M142.65,140.9v-17.13h11.46c1.67,0,3.02.08,4.04.25,1.02.16,1.8.44,2.32.82.53.38.88.9,1.07,1.55.19.65.28,1.46.28,2.43v.45c0,.92-.09,1.7-.28,2.35-.19.64-.56,1.16-1.1,1.55-.54.39-1.33.68-2.35.86s-2.38.27-4.05.27h-9.25v6.6h-2.14ZM159.69,128.81c0-.71-.07-1.27-.2-1.69-.13-.42-.4-.74-.8-.96-.4-.22-1-.36-1.8-.43-.8-.07-1.86-.11-3.19-.11h-8.91v6.82h8.91c1.33,0,2.39-.04,3.19-.13.8-.09,1.39-.24,1.8-.47.4-.23.67-.55.8-.97.13-.42.2-.96.2-1.62v-.45Z"/>
        <path class="cls-1" d="M164.81,140.9v-17.13h16.81v1.78h-14.67v5.71h14.06v1.78h-14.06v6.07h14.99v1.78h-17.13Z"/>
        <path class="cls-1" d="M184.83,123.77h11.46c1.67,0,3.02.07,4.04.22,1.02.15,1.8.41,2.32.77.53.36.88.86,1.07,1.49.19.63.28,1.43.28,2.4v.45c0,.89-.11,1.66-.32,2.3-.21.64-.62,1.16-1.22,1.56s-1.49.68-2.68.84l3.72,7.09h-2.14l-3.65-6.94c-.15,0-.3.01-.46.01h-10.3v6.92h-2.14v-17.13ZM186.97,132.12h9.47c1.27,0,2.27-.04,3.01-.13.73-.09,1.27-.24,1.62-.45.35-.22.57-.52.66-.91.1-.39.14-.9.14-1.53v-.45c0-.71-.07-1.26-.2-1.67-.13-.41-.4-.71-.8-.9s-1-.32-1.8-.37c-.8-.06-1.86-.08-3.19-.08h-8.91v6.5Z"/>
        <path class="cls-1" d="M208.06,140.9v-17.13h16.14v1.78h-14v5.71h13.37v1.78h-13.37v7.85h-2.14Z"/>
        <path class="cls-1" d="M234.89,141.25c-1.67,0-3.05-.11-4.13-.34s-1.92-.64-2.53-1.25c-.6-.61-1.03-1.49-1.27-2.63s-.36-2.63-.36-4.47v-.45c0-1.52.08-2.79.22-3.82s.41-1.87.77-2.51c.36-.65.86-1.14,1.49-1.48.63-.34,1.42-.57,2.37-.7s2.1-.18,3.43-.18h4.49c1.34,0,2.48.06,3.43.18s1.74.36,2.37.7c.63.34,1.12.84,1.49,1.48s.62,1.48.77,2.51c.15,1.03.22,2.3.22,3.82v.45c0,1.84-.12,3.33-.36,4.47s-.66,2.02-1.27,2.63c-.61.61-1.45,1.03-2.53,1.25s-2.45.34-4.12.34h-4.49ZM234.89,139.4h4.49c1.06,0,1.96-.04,2.69-.11.73-.07,1.32-.23,1.78-.48.46-.25.81-.62,1.05-1.11.24-.5.41-1.16.5-2,.09-.83.13-1.88.13-3.14v-.45c0-1.31-.04-2.39-.13-3.23s-.26-1.52-.5-2.01c-.24-.49-.59-.85-1.05-1.08-.46-.23-1.05-.37-1.78-.44-.73-.06-1.62-.09-2.69-.09h-4.49c-1.06,0-1.96.03-2.69.09-.73.06-1.32.21-1.78.44-.46.23-.81.59-1.05,1.08-.24.49-.41,1.16-.5,2.01-.09.85-.13,1.93-.13,3.23v.45c0,1.26.04,2.31.13,3.14.09.83.26,1.5.5,2,.24.5.59.87,1.05,1.11.46.25,1.05.41,1.78.48.73.07,1.62.11,2.69.11Z"/>
        <path class="cls-1" d="M251.28,123.77h11.46c1.67,0,3.02.07,4.04.22,1.02.15,1.8.41,2.33.77.53.36.88.86,1.07,1.49.19.63.28,1.43.28,2.4v.45c0,.89-.11,1.66-.32,2.3-.21.64-.62,1.16-1.22,1.56s-1.5.68-2.68.84l3.72,7.09h-2.14l-3.64-6.94c-.15,0-.3.01-.46.01h-10.3v6.92h-2.14v-17.13ZM253.42,132.12h9.47c1.27,0,2.27-.04,3.01-.13.73-.09,1.27-.24,1.62-.45.35-.22.57-.52.66-.91.1-.39.14-.9.14-1.53v-.45c0-.71-.07-1.26-.2-1.67-.13-.41-.4-.71-.8-.9s-1-.32-1.8-.37c-.8-.06-1.86-.08-3.19-.08h-8.91v6.5Z"/>
        <path class="cls-1" d="M274.55,140.9v-17.13h3.19l10.36,13.97,10.2-13.97h3.19v17.13h-2.14v-15.19l-10.22,14.06h-1.94l-10.49-14.06v15.19h-2.14Z"/>
        <path class="cls-1" d="M304.39,140.9l9.99-17.13h2.85l9.99,17.13h-2.5l-2.14-3.92h-13.56l-2.14,3.92h-2.5ZM310.1,135.19h11.42l-5.71-9.99-5.71,9.99Z"/>
        <path class="cls-1" d="M330.08,140.9v-17.13h2.23l17.2,14.48h.02v-14.48h2.14v17.13h-2.23l-17.21-14.61h-.02v14.61h-2.14Z"/>
        <path class="cls-1" d="M355.24,132.56v-.45c0-1.52.08-2.79.22-3.82s.41-1.87.77-2.51c.36-.65.86-1.14,1.49-1.48.63-.34,1.42-.57,2.37-.7s2.1-.18,3.43-.18h4.49c1.53,0,2.82.07,3.87.22,1.05.14,1.9.43,2.54.86.64.43,1.11,1.06,1.4,1.88.29.83.43,1.93.43,3.3h-2.14c0-1.08-.1-1.92-.29-2.51s-.52-1.03-.98-1.3c-.46-.27-1.08-.43-1.87-.5-.79-.06-1.78-.09-2.98-.09h-4.49c-1.06,0-1.96.03-2.69.09-.73.06-1.32.21-1.78.44-.46.23-.81.59-1.05,1.08-.24.49-.41,1.16-.5,2.01-.09.85-.13,1.93-.13,3.23v.45c0,1.26.04,2.31.13,3.14.09.83.26,1.5.5,2s.59.87,1.05,1.11c.46.25,1.05.41,1.78.48.73.07,1.62.11,2.69.11h4.49c1.2,0,2.19-.03,2.98-.08s1.41-.2,1.87-.46c.46-.25.78-.67.98-1.27.19-.59.29-1.42.29-2.49h2.14c0,1.37-.14,2.46-.43,3.28s-.76,1.43-1.4,1.85c-.64.41-1.49.69-2.54.82-1.05.13-2.34.2-3.87.2h-4.49c-1.67,0-3.05-.11-4.13-.34s-1.92-.64-2.53-1.25c-.6-.61-1.03-1.49-1.27-2.63s-.36-2.63-.36-4.47Z"/>
        <path class="cls-1" d="M379.87,140.9v-17.13h16.81v1.78h-14.67v5.71h14.06v1.78h-14.06v6.07h14.99v1.78h-17.13Z"/>
      </g>
    </g>
  </g>
</svg>